<svg id="left_15" xmlns="http://www.w3.org/2000/svg" width="21.182" height="23.755" viewBox="0 0 21.182 23.755">
  <g id="Undo" transform="translate(0 0)">
    <path id="Path_1" data-name="Path 1" d="M25.173,17.157A10.576,10.576,0,0,1,9.04,25.224a10.713,10.713,0,0,1-5.01-9,.664.664,0,0,1,1.329,0,9.267,9.267,0,1,0,13.29-8.333,13.389,13.389,0,0,0-6.166-.917V8.9a.664.664,0,0,1-1.076.518L8.122,6.831a.664.664,0,0,1,0-1.05L11.432,3.2a.664.664,0,0,1,1.063.532V5.648c.944-.013,1.9-.04,2.831.027a10.612,10.612,0,0,1,9.848,11.482Z" transform="translate(-4.03 -3.07)"/>
  </g>
  <text id="_15" data-name="15" transform="translate(5.796 16.175)" fill="#888" font-size="9" font-family="ProximaNova-Medium, Proxima Nova" font-weight="500"><tspan x="0" y="0">15</tspan></text>
</svg>
